<?xml version="1.0" standalone="no"?>
<!DOCTYPE svg PUBLIC "-//W3C//DTD SVG 20010904//EN"
 "http://www.w3.org/TR/2001/REC-SVG-20010904/DTD/svg10.dtd">
<svg version="1.0" xmlns="http://www.w3.org/2000/svg"
 width="200.000000pt" height="200.000000pt" viewBox="0 0 200.000000 200.000000"
 preserveAspectRatio="xMidYMid meet">
<metadata>
Created by potrace 1.14, written by Peter Selinger 2001-2017
</metadata>
<g transform="translate(0.000000,200.000000) scale(0.100000,-0.100000)"
fill="#000000" stroke="none">
<path d="M1195 1710 c-56 -28 -689 -663 -710 -712 -19 -47 -19 -155 0 -188 18
-32 18 -40 2 -40 -7 0 -37 -7 -65 -15 -205 -61 -230 -344 -39 -440 93 -46 191
-30 270 43 34 32 52 43 55 34 2 -8 17 -29 34 -47 70 -80 199 -100 293 -46 31
18 167 147 366 348 291 293 318 322 334 372 51 155 -54 309 -216 315 -21 0
-38 3 -36 6 73 123 64 242 -25 327 -18 18 -50 39 -70 47 -53 22 -144 20 -193
-4z m55 -76 c-39 -42 -41 -47 -26 -62 15 -15 21 -12 75 42 61 60 82 66 112 30
10 -13 1 -27 -64 -92 -42 -43 -77 -85 -77 -95 0 -35 36 -15 111 59 76 75 77
76 89 53 18 -33 17 -119 -3 -155 -14 -27 -517 -538 -522 -532 -1 2 -5 26 -8
54 l-6 51 85 84 c85 85 97 105 68 116 -11 4 -40 -19 -95 -73 l-79 -78 -30 29
-30 29 100 101 c55 55 100 108 100 117 0 42 -28 24 -134 -81 -107 -107 -113
-111 -140 -101 -15 5 -44 10 -64 10 -37 0 -36 1 218 256 140 140 264 260 275
266 22 12 78 27 84 22 2 -2 -15 -24 -39 -50z m329 -359 c3 -3 -21 -31 -52 -63
-31 -32 -57 -65 -57 -74 0 -38 25 -27 90 37 62 61 71 67 86 54 26 -21 54 -89
54 -133 0 -73 -31 -112 -288 -370 l-249 -248 -7 53 -7 52 88 89 c82 82 86 89
71 105 -16 15 -23 11 -101 -66 l-85 -82 -22 31 -22 31 27 29 c17 17 25 35 22
44 -10 24 -30 19 -62 -14 -24 -25 -35 -30 -55 -24 -14 4 -46 10 -73 13 l-47 6
258 258 c278 277 297 292 381 282 25 -3 47 -7 50 -10z m-789 -205 c58 -30 93
-81 98 -145 6 -70 -11 -116 -58 -159 -156 -141 -389 36 -295 224 45 88 165
126 255 80z m-195 -387 c47 -33 85 -102 85 -153 0 -51 -43 -130 -85 -159 -114
-77 -277 -2 -292 133 -19 162 159 271 292 179z m422 -19 c60 -35 88 -85 88
-160 0 -51 -5 -68 -29 -103 -46 -67 -122 -97 -198 -79 -190 42 -198 315 -11
363 58 15 95 10 150 -21z m-287 -1 c0 -5 -5 -15 -10 -23 -9 -13 -11 -13 -20 0
-8 13 -1 21 28 29 1 1 2 -2 2 -6z"/>
<path d="M1196 1294 c-46 -45 -54 -66 -25 -72 20 -4 109 87 102 104 -9 24 -28
16 -77 -32z"/>
<path d="M1256 951 c-84 -84 -98 -111 -58 -111 26 0 175 153 170 175 -1 10 -8
20 -13 22 -6 2 -50 -37 -99 -86z"/>
</g>
</svg>
