<svg width="200" height="88" viewBox="0 0 416 88" fill="none" xmlns="http://www.w3.org/2000/svg">
    <path d="M42.8438 49.3438L51 50.5625C50.8438 53.5625 50.5781 56.125 50.2031 58.25C49.8281 60.3438 49.2656 62.2188 48.5156 63.875C47.7969 65.5312 46.9062 66.875 45.8438 67.9062C44.7812 68.9062 43.4062 69.7344 41.7188 70.3906C40.0625 71.0469 38.1875 71.5 36.0938 71.75C34.0312 72 31.5312 72.125 28.5938 72.125C25.7812 72.125 23.2656 72.0469 21.0469 71.8906C18.8281 71.7656 16.7969 71.4688 14.9531 71C13.1406 70.5 11.5469 70.0312 10.1719 69.5938C8.82812 69.125 7.625 68.3594 6.5625 67.2969C5.53125 66.2344 4.65625 65.2812 3.9375 64.4375C3.25 63.5938 2.65625 62.3125 2.15625 60.5938C1.6875 58.8438 1.32812 57.3125 1.07812 56C0.828125 54.6875 0.625 52.7812 0.46875 50.2812C0.34375 47.7812 0.265625 45.5938 0.234375 43.7188C0.203125 41.8438 0.1875 39.25 0.1875 35.9375C0.1875 32.4375 0.203125 29.625 0.234375 27.5C0.265625 25.375 0.359375 23.0625 0.515625 20.5625C0.671875 18.0625 0.859375 16.125 1.07812 14.75C1.32812 13.375 1.70312 11.875 2.20312 10.25C2.73438 8.59375 3.32812 7.375 3.98438 6.59375C4.64062 5.78125 5.5 4.90625 6.5625 3.96875C7.625 3.03125 8.78125 2.39062 10.0312 2.04688C11.3125 1.67188 12.8594 1.29688 14.6719 0.921875C16.4844 0.546875 18.4219 0.3125 20.4844 0.21875C22.5781 0.125 25 0.078125 27.75 0.078125C30.5938 0.078125 33.0156 0.1875 35.0156 0.40625C37.0156 0.59375 38.8906 0.984375 40.6406 1.57812C42.3906 2.14062 43.8281 2.90625 44.9531 3.875C46.0781 4.8125 47.0625 6.04688 47.9062 7.57812C48.7812 9.10938 49.4531 10.9219 49.9219 13.0156C50.3906 15.0781 50.7344 17.5625 50.9531 20.4688L42.75 22.0625C42.5938 20.4688 42.4531 19.1406 42.3281 18.0781C42.2031 17.0156 42.0156 15.9688 41.7656 14.9375C41.5469 13.9062 41.3594 13.0781 41.2031 12.4531C41.0781 11.7969 40.7969 11.1719 40.3594 10.5781C39.9219 9.95312 39.5625 9.48438 39.2812 9.17188C39.0312 8.85938 38.5469 8.5625 37.8281 8.28125C37.1094 8 36.5 7.8125 36 7.71875C35.5312 7.59375 34.7344 7.48438 33.6094 7.39062C32.5156 7.29688 31.5625 7.25 30.75 7.25C29.9375 7.25 28.75 7.25 27.1875 7.25C25 7.25 23.2031 7.28125 21.7969 7.34375C20.4219 7.375 19.0312 7.48438 17.625 7.67188C16.25 7.82812 15.1562 8.07812 14.3438 8.42188C13.5625 8.73438 12.8281 9.17188 12.1406 9.73438C11.4531 10.2656 10.9531 10.9375 10.6406 11.75C10.3594 12.5312 10.1875 13.4844 10.125 14.6094C9.84375 22.8594 9.70312 31.2812 9.70312 39.875C9.70312 45.875 9.84375 51.7344 10.125 57.4531C10.2812 59.2344 10.7812 60.625 11.625 61.625C12.5 62.625 14.1719 63.4219 16.6406 64.0156C19.1406 64.6094 22.6719 64.9062 27.2344 64.9062C29.6719 64.9062 31.7188 64.8438 33.375 64.7188C35.0312 64.5625 36.4219 64.2344 37.5469 63.7344C38.6719 63.2031 39.5312 62.7344 40.125 62.3281C40.7188 61.8906 41.1875 61.0625 41.5312 59.8438C41.9062 58.625 42.1406 57.6094 42.2344 56.7969C42.3594 55.9531 42.4844 54.5312 42.6094 52.5312C42.6406 52.0938 42.6562 51.75 42.6562 51.5C42.6875 51.25 42.7188 50.9219 42.75 50.5156C42.7812 50.0781 42.8125 49.6875 42.8438 49.3438ZM101.062 71H93.75L92.25 63.6406C91.3125 66.8594 89.6094 69.0156 87.1406 70.1094C84.7031 71.1719 81.125 71.7031 76.4062 71.7031C73.2812 71.7031 70.7188 71.4062 68.7188 70.8125C66.7188 70.1875 65.125 69.1562 63.9375 67.7188C62.75 66.2812 61.9219 64.5312 61.4531 62.4688C61.0156 60.375 60.7969 57.6875 60.7969 54.4062C60.7969 52.9375 61.0469 51.625 61.5469 50.4688C62.0781 49.3125 62.7812 48.3281 63.6562 47.5156C64.5625 46.7031 65.75 46 67.2188 45.4062C68.7188 44.8125 70.2656 44.3438 71.8594 44C73.4531 43.6562 75.375 43.3906 77.625 43.2031C79.9062 42.9844 82.125 42.8438 84.2812 42.7812C86.4375 42.7188 88.9531 42.6875 91.8281 42.6875V28.7656C91.8281 27.1719 91.0781 26.0781 89.5781 25.4844C88.0781 24.8594 85.4062 24.5469 81.5625 24.5469C78.875 24.5469 76.8594 24.6094 75.5156 24.7344C74.1719 24.8594 73.1406 25.2344 72.4219 25.8594C71.7344 26.4531 71.3281 27.0469 71.2031 27.6406C71.1094 28.2344 71.0469 29.3438 71.0156 30.9688C70.9844 31.5625 70.9688 32.0312 70.9688 32.375L63.7969 32.0938C63.7344 31.5938 63.7031 30.8594 63.7031 29.8906C63.7031 27.7969 64 26.0312 64.5938 24.5938C65.2188 23.125 66.0156 21.9844 66.9844 21.1719C67.9531 20.3281 69.2812 19.6719 70.9688 19.2031C72.6562 18.7344 74.3281 18.4375 75.9844 18.3125C77.6406 18.1875 79.7031 18.125 82.1719 18.125C85.9219 18.125 88.9688 18.4219 91.3125 19.0156C93.6562 19.5781 95.5781 20.6094 97.0781 22.1094C98.5781 23.6094 99.6094 25.5312 100.172 27.875C100.766 30.1875 101.062 33.2188 101.062 36.9688V71ZM91.8281 56.2812V48.2656C85.6719 48.2656 80.9375 48.5 77.625 48.9688C74.3125 49.4375 72.0938 50.0938 70.9688 50.9375C69.875 51.75 69.3281 52.9062 69.3281 54.4062C69.3281 54.4688 69.3281 54.5625 69.3281 54.6875C69.3281 59.4375 69.7188 62.3906 70.5 63.5469C71.2812 64.7031 73.6719 65.2812 77.6719 65.2812C81.0781 65.2812 83.8438 64.875 85.9688 64.0625C88.0938 63.25 89.5625 62.2188 90.375 60.9688C91.2188 59.6875 91.7031 58.125 91.8281 56.2812ZM138.234 18.4062L137.859 26.2344C136.672 26.0781 135.547 26 134.484 26C132.266 26 130.469 26.2188 129.094 26.6562C127.719 27.0938 126.672 27.8438 125.953 28.9062C125.266 29.9688 124.797 31.1875 124.547 32.5625C124.328 33.9062 124.219 35.7188 124.219 38C124.219 39.2812 124.266 41.1562 124.359 43.625C124.484 46.0938 124.547 47.8594 124.547 48.9219V71H115.312V19.5781H123.703L124.641 25.3438C125.609 23.0938 127.078 21.3594 129.047 20.1406C131.016 18.8906 133.375 18.2656 136.125 18.2656C136.812 18.2656 137.516 18.3125 138.234 18.4062ZM158.578 71H149.344V1.34375L158.578 0.59375V71ZM193.547 65.2344C197.984 65.1406 201.062 64.8125 202.781 64.25C204.531 63.6875 205.406 62.5781 205.406 60.9219C205.75 56.4531 205.922 51.2812 205.922 45.4062C205.922 43.4688 205.844 40.7031 205.688 37.1094C205.531 33.4844 205.453 30.7969 205.453 29.0469C205.453 28.5156 205.359 28.0312 205.172 27.5938C205.016 27.1562 204.734 26.7969 204.328 26.5156C203.953 26.2031 203.562 25.9375 203.156 25.7188C202.781 25.5 202.234 25.3281 201.516 25.2031C200.828 25.0781 200.234 24.9688 199.734 24.875C199.266 24.7812 198.578 24.7188 197.672 24.6875C196.797 24.6562 196.109 24.6406 195.609 24.6406C195.141 24.6406 194.438 24.6406 193.5 24.6406C192.562 24.6406 191.844 24.6406 191.344 24.6406C190.875 24.6406 190.188 24.6562 189.281 24.6875C188.406 24.7188 187.719 24.7812 187.219 24.875C186.75 24.9688 186.156 25.0781 185.438 25.2031C184.75 25.3281 184.203 25.5 183.797 25.7188C183.422 25.9375 183.031 26.2031 182.625 26.5156C182.25 26.7969 181.969 27.1562 181.781 27.5938C181.625 28.0312 181.547 28.5156 181.547 29.0469C181.547 30.7969 181.469 33.4844 181.312 37.1094C181.156 40.7031 181.078 43.4688 181.078 45.4062C181.078 51.2812 181.25 56.4531 181.594 60.9219C181.594 62.5781 182.5 63.7188 184.312 64.3438C186.156 64.9375 189.234 65.2344 193.547 65.2344ZM193.453 71.7031C189.984 71.7031 187.094 71.5625 184.781 71.2812C182.469 71 180.469 70.3906 178.781 69.4531C177.125 68.4844 175.859 67.4688 174.984 66.4062C174.109 65.3125 173.422 63.6094 172.922 61.2969C172.422 58.9531 172.109 56.6406 171.984 54.3594C171.891 52.0781 171.844 48.9062 171.844 44.8438C171.844 41.8125 171.875 39.2812 171.938 37.25C172.031 35.2188 172.219 33.2344 172.5 31.2969C172.781 29.3281 173.125 27.75 173.531 26.5625C173.969 25.3438 174.578 24.2031 175.359 23.1406C176.172 22.0469 177.078 21.2188 178.078 20.6562C179.078 20.0938 180.344 19.6094 181.875 19.2031C183.438 18.7656 185.125 18.4844 186.938 18.3594C188.781 18.2031 190.969 18.125 193.5 18.125C196.031 18.125 198.203 18.2031 200.016 18.3594C201.859 18.4844 203.547 18.7656 205.078 19.2031C206.641 19.6094 207.922 20.0938 208.922 20.6562C209.922 21.2188 210.812 22.0469 211.594 23.1406C212.406 24.2031 213.016 25.3438 213.422 26.5625C213.859 27.75 214.219 29.3281 214.5 31.2969C214.781 33.2344 214.953 35.2188 215.016 37.25C215.109 39.2812 215.156 41.8125 215.156 44.8438C215.156 48.9062 215.094 52.0781 214.969 54.3594C214.875 56.6406 214.578 58.9531 214.078 61.2969C213.578 63.6094 212.875 65.3125 211.969 66.4062C211.094 67.5 209.812 68.5156 208.125 69.4531C206.469 70.3906 204.484 71 202.172 71.2812C199.859 71.5625 196.953 71.7031 193.453 71.7031ZM265.359 56.75C265.359 59.75 265.031 62.2188 264.375 64.1562C263.719 66.0625 262.625 67.5781 261.094 68.7031C259.594 69.8281 257.75 70.6094 255.562 71.0469C253.406 71.4844 250.672 71.7031 247.359 71.7031C245.422 71.7031 243.859 71.6875 242.672 71.6562C241.516 71.625 240.172 71.5469 238.641 71.4219C237.109 71.2969 235.891 71.1094 234.984 70.8594C234.078 70.5781 233.094 70.2188 232.031 69.7812C231 69.3125 230.188 68.7344 229.594 68.0469C229 67.3281 228.438 66.4844 227.906 65.5156C227.375 64.5469 227 63.4062 226.781 62.0938C226.562 60.75 226.453 59.2344 226.453 57.5469L233.719 55.6719C234 59.2344 234.328 61.4844 234.703 62.4219C235.266 63.7031 236.438 64.5156 238.219 64.8594C239.562 65.1406 242.391 65.2812 246.703 65.2812C249.297 65.2812 251.219 65.1719 252.469 64.9531C253.75 64.7031 254.609 64.25 255.047 63.5938C256.297 62.5625 256.922 59.0469 256.922 53.0469C256.922 52.1406 256.734 51.375 256.359 50.75C255.984 50.0938 255.531 49.6094 255 49.2969C254.469 48.9531 253.719 48.6719 252.75 48.4531C251.812 48.2031 250.953 48.0469 250.172 47.9844C249.422 47.8906 248.422 47.7812 247.172 47.6562C245.922 47.5312 244.922 47.4219 244.172 47.3281C241.891 47.0781 240.031 46.8438 238.594 46.625C237.156 46.375 235.703 46.0156 234.234 45.5469C232.766 45.0781 231.609 44.5 230.766 43.8125C229.953 43.125 229.203 42.2344 228.516 41.1406C227.828 40.0469 227.344 38.7344 227.062 37.2031C226.781 35.6719 226.641 33.8438 226.641 31.7188C226.641 29.4688 226.875 27.5625 227.344 26C227.812 24.4375 228.5 23.1406 229.406 22.1094C230.312 21.0781 231.547 20.2812 233.109 19.7188C234.703 19.125 236.484 18.7188 238.453 18.5C240.422 18.25 242.828 18.125 245.672 18.125C247.453 18.125 248.906 18.1562 250.031 18.2188C251.188 18.25 252.438 18.3594 253.781 18.5469C255.156 18.7031 256.266 18.9375 257.109 19.25C257.953 19.5625 258.797 20 259.641 20.5625C260.516 21.125 261.188 21.8281 261.656 22.6719C262.125 23.4844 262.5 24.4844 262.781 25.6719C263.094 26.8594 263.25 28.2188 263.25 29.75L256.969 31.6719C256.844 30.4531 256.719 29.5 256.594 28.8125C256.5 28.0938 256.266 27.4375 255.891 26.8438C255.516 26.25 255.125 25.8281 254.719 25.5781C254.312 25.3281 253.609 25.1094 252.609 24.9219C251.641 24.7344 250.656 24.625 249.656 24.5938C248.656 24.5625 247.219 24.5469 245.344 24.5469C241.344 24.5469 238.625 24.9531 237.188 25.7656C235.781 26.5469 235.078 27.8438 235.078 29.6562V34.4375C235.078 36.5 235.688 37.8125 236.906 38.375C238.156 38.9062 241.469 39.5156 246.844 40.2031C247.406 40.2969 247.828 40.3594 248.109 40.3906C250.266 40.6406 251.969 40.875 253.219 41.0938C254.5 41.3125 255.844 41.6094 257.25 41.9844C258.656 42.3281 259.719 42.75 260.438 43.25C261.188 43.7188 261.922 44.3281 262.641 45.0781C263.391 45.8281 263.922 46.75 264.234 47.8438C264.578 48.9375 264.844 50.2031 265.031 51.6406C265.25 53.0781 265.359 54.7812 265.359 56.75ZM305.297 71H296.062V1.34375L305.297 0.59375V71ZM340.266 65.2344C344.703 65.1406 347.781 64.8125 349.5 64.25C351.25 63.6875 352.125 62.5781 352.125 60.9219C352.469 56.4531 352.641 51.2812 352.641 45.4062C352.641 43.4688 352.562 40.7031 352.406 37.1094C352.25 33.4844 352.172 30.7969 352.172 29.0469C352.172 28.5156 352.078 28.0312 351.891 27.5938C351.734 27.1562 351.453 26.7969 351.047 26.5156C350.672 26.2031 350.281 25.9375 349.875 25.7188C349.5 25.5 348.953 25.3281 348.234 25.2031C347.547 25.0781 346.953 24.9688 346.453 24.875C345.984 24.7812 345.297 24.7188 344.391 24.6875C343.516 24.6562 342.828 24.6406 342.328 24.6406C341.859 24.6406 341.156 24.6406 340.219 24.6406C339.281 24.6406 338.562 24.6406 338.062 24.6406C337.594 24.6406 336.906 24.6562 336 24.6875C335.125 24.7188 334.438 24.7812 333.938 24.875C333.469 24.9688 332.875 25.0781 332.156 25.2031C331.469 25.3281 330.922 25.5 330.516 25.7188C330.141 25.9375 329.75 26.2031 329.344 26.5156C328.969 26.7969 328.688 27.1562 328.5 27.5938C328.344 28.0312 328.266 28.5156 328.266 29.0469C328.266 30.7969 328.188 33.4844 328.031 37.1094C327.875 40.7031 327.797 43.4688 327.797 45.4062C327.797 51.2812 327.969 56.4531 328.312 60.9219C328.312 62.5781 329.219 63.7188 331.031 64.3438C332.875 64.9375 335.953 65.2344 340.266 65.2344ZM340.172 71.7031C336.703 71.7031 333.812 71.5625 331.5 71.2812C329.188 71 327.188 70.3906 325.5 69.4531C323.844 68.4844 322.578 67.4688 321.703 66.4062C320.828 65.3125 320.141 63.6094 319.641 61.2969C319.141 58.9531 318.828 56.6406 318.703 54.3594C318.609 52.0781 318.562 48.9062 318.562 44.8438C318.562 41.8125 318.594 39.2812 318.656 37.25C318.75 35.2188 318.938 33.2344 319.219 31.2969C319.5 29.3281 319.844 27.75 320.25 26.5625C320.688 25.3438 321.297 24.2031 322.078 23.1406C322.891 22.0469 323.797 21.2188 324.797 20.6562C325.797 20.0938 327.062 19.6094 328.594 19.2031C330.156 18.7656 331.844 18.4844 333.656 18.3594C335.5 18.2031 337.688 18.125 340.219 18.125C342.75 18.125 344.922 18.2031 346.734 18.3594C348.578 18.4844 350.266 18.7656 351.797 19.2031C353.359 19.6094 354.641 20.0938 355.641 20.6562C356.641 21.2188 357.531 22.0469 358.312 23.1406C359.125 24.2031 359.734 25.3438 360.141 26.5625C360.578 27.75 360.938 29.3281 361.219 31.2969C361.5 33.2344 361.672 35.2188 361.734 37.25C361.828 39.2812 361.875 41.8125 361.875 44.8438C361.875 48.9062 361.812 52.0781 361.688 54.3594C361.594 56.6406 361.297 58.9531 360.797 61.2969C360.297 63.6094 359.594 65.3125 358.688 66.4062C357.812 67.5 356.531 68.5156 354.844 69.4531C353.188 70.3906 351.203 71 348.891 71.2812C346.578 71.5625 343.672 71.7031 340.172 71.7031ZM415.406 19.5781V64.4844C415.406 67.5781 415.297 70.1875 415.078 72.3125C414.891 74.4375 414.516 76.4219 413.953 78.2656C413.422 80.1094 412.688 81.5781 411.75 82.6719C410.812 83.7969 409.562 84.7656 408 85.5781C406.469 86.3906 404.656 86.9531 402.562 87.2656C400.469 87.5781 397.953 87.7344 395.016 87.7344C388.891 87.7344 384.016 87.0938 380.391 85.8125L381 79.4375C384.5 80.4062 388.656 80.8906 393.469 80.8906C395.75 80.8906 397.672 80.7656 399.234 80.5156C400.828 80.2656 402.062 79.9531 402.938 79.5781C403.844 79.2031 404.531 78.6562 405 77.9375C405.5 77.25 405.812 76.5625 405.938 75.875C406.094 75.1875 406.172 74.3125 406.172 73.25L406.125 64.8594C405.281 67.0469 403.828 68.6406 401.766 69.6406C399.703 70.6406 396.797 71.1406 393.047 71.1406C390.359 71.1406 388.016 70.9531 386.016 70.5781C384.016 70.2031 382.312 69.7344 380.906 69.1719C379.5 68.6094 378.328 67.7344 377.391 66.5469C376.484 65.3281 375.766 64.1875 375.234 63.125C374.703 62.0312 374.312 60.4844 374.062 58.4844C373.812 56.4531 373.656 54.6406 373.594 53.0469C373.531 51.4219 373.5 49.2188 373.5 46.4375C373.5 42.9062 373.531 40.1406 373.594 38.1406C373.656 36.1406 373.797 33.9844 374.016 31.6719C374.234 29.3281 374.594 27.5625 375.094 26.375C375.594 25.1875 376.234 23.9844 377.016 22.7656C377.828 21.5156 378.875 20.625 380.156 20.0938C381.438 19.5625 382.938 19.125 384.656 18.7812C386.406 18.4375 388.484 18.2656 390.891 18.2656C394.984 18.2656 398.266 18.8281 400.734 19.9531C403.203 21.0469 405 22.8281 406.125 25.2969L407.016 19.5781H415.406ZM406.172 60.5469V31.9531C406.172 29.3281 405.297 27.4531 403.547 26.3281C401.828 25.1719 398.734 24.5938 394.266 24.5938C389.891 24.5938 386.891 24.9844 385.266 25.7656C383.516 26.6094 382.641 30.0312 382.641 36.0312C382.641 45.0625 382.766 52.9375 383.016 59.6562C383.109 61.125 383.484 62.2031 384.141 62.8906C384.828 63.5781 385.984 64.0625 387.609 64.3438C389.234 64.5938 391.781 64.7188 395.25 64.7188C402.219 64.7188 405.859 63.3281 406.172 60.5469Z" fill="#B1B1B1"/>
</svg>
